<mxfile host="app.diagrams.net" modified="2021-12-31T09:26:02.761Z" agent="5.0 (Macintosh; Intel Mac OS X 10_15_7) AppleWebKit/605.1.15 (KHTML, like Gecko) Version/15.2 Safari/605.1.15" etag="YuJmbR7sgMKRi8fA-IAN" version="16.1.2" type="github">
  <diagram id="3waTQkPgR3KwLTMVxv8k" name="Page-1">
    <mxGraphModel dx="1298" dy="840" grid="1" gridSize="10" guides="1" tooltips="1" connect="1" arrows="1" fold="1" page="1" pageScale="1" pageWidth="827" pageHeight="1169" math="0" shadow="0">
      <root>
        <mxCell id="0" />
        <mxCell id="1" parent="0" />
        <mxCell id="EOYsyv7ITSajm1jVBeUH-4" style="edgeStyle=orthogonalEdgeStyle;rounded=0;orthogonalLoop=1;jettySize=auto;html=1;exitX=1;exitY=0.5;exitDx=0;exitDy=0;" edge="1" parent="1" source="EOYsyv7ITSajm1jVBeUH-1" target="EOYsyv7ITSajm1jVBeUH-2">
          <mxGeometry relative="1" as="geometry" />
        </mxCell>
        <mxCell id="EOYsyv7ITSajm1jVBeUH-1" value="普通二叉树" style="ellipse;whiteSpace=wrap;html=1;align=center;newEdgeStyle={&quot;edgeStyle&quot;:&quot;entityRelationEdgeStyle&quot;,&quot;startArrow&quot;:&quot;none&quot;,&quot;endArrow&quot;:&quot;none&quot;,&quot;segment&quot;:10,&quot;curved&quot;:1};treeFolding=1;treeMoving=1;fillColor=#ffe6cc;strokeColor=#d79b00;" vertex="1" parent="1">
          <mxGeometry x="210" y="370" width="100" height="40" as="geometry" />
        </mxCell>
        <mxCell id="EOYsyv7ITSajm1jVBeUH-6" style="edgeStyle=orthogonalEdgeStyle;rounded=0;orthogonalLoop=1;jettySize=auto;html=1;exitX=0.5;exitY=1;exitDx=0;exitDy=0;" edge="1" parent="1" source="EOYsyv7ITSajm1jVBeUH-2" target="EOYsyv7ITSajm1jVBeUH-5">
          <mxGeometry relative="1" as="geometry" />
        </mxCell>
        <mxCell id="EOYsyv7ITSajm1jVBeUH-2" value="节点无序" style="whiteSpace=wrap;html=1;rounded=1;arcSize=50;align=center;verticalAlign=middle;strokeWidth=1;autosize=1;spacing=4;treeFolding=1;treeMoving=1;newEdgeStyle={&quot;edgeStyle&quot;:&quot;entityRelationEdgeStyle&quot;,&quot;startArrow&quot;:&quot;none&quot;,&quot;endArrow&quot;:&quot;none&quot;,&quot;segment&quot;:10,&quot;curved&quot;:1};" vertex="1" parent="1">
          <mxGeometry x="361" y="375" width="90" height="30" as="geometry" />
        </mxCell>
        <mxCell id="EOYsyv7ITSajm1jVBeUH-8" style="edgeStyle=orthogonalEdgeStyle;rounded=0;orthogonalLoop=1;jettySize=auto;html=1;exitX=1;exitY=0.5;exitDx=0;exitDy=0;entryX=0;entryY=0.5;entryDx=0;entryDy=0;" edge="1" parent="1" source="EOYsyv7ITSajm1jVBeUH-5" target="EOYsyv7ITSajm1jVBeUH-7">
          <mxGeometry relative="1" as="geometry" />
        </mxCell>
        <mxCell id="EOYsyv7ITSajm1jVBeUH-11" style="edgeStyle=orthogonalEdgeStyle;rounded=0;orthogonalLoop=1;jettySize=auto;html=1;exitX=0.5;exitY=1;exitDx=0;exitDy=0;entryX=0;entryY=0.5;entryDx=0;entryDy=0;" edge="1" parent="1" source="EOYsyv7ITSajm1jVBeUH-5" target="EOYsyv7ITSajm1jVBeUH-9">
          <mxGeometry relative="1" as="geometry" />
        </mxCell>
        <mxCell id="EOYsyv7ITSajm1jVBeUH-5" value="二叉搜索树" style="whiteSpace=wrap;html=1;rounded=1;arcSize=50;align=center;verticalAlign=middle;strokeWidth=1;autosize=1;spacing=4;treeFolding=1;treeMoving=1;newEdgeStyle={&quot;edgeStyle&quot;:&quot;entityRelationEdgeStyle&quot;,&quot;startArrow&quot;:&quot;none&quot;,&quot;endArrow&quot;:&quot;none&quot;,&quot;segment&quot;:10,&quot;curved&quot;:1};fillColor=#ffe6cc;strokeColor=#d79b00;" vertex="1" parent="1">
          <mxGeometry x="356" y="460" width="100" height="30" as="geometry" />
        </mxCell>
        <mxCell id="EOYsyv7ITSajm1jVBeUH-7" value="优点：O(logn)" style="whiteSpace=wrap;html=1;rounded=1;arcSize=50;align=center;verticalAlign=middle;strokeWidth=1;autosize=1;spacing=4;treeFolding=1;treeMoving=1;newEdgeStyle={&quot;edgeStyle&quot;:&quot;entityRelationEdgeStyle&quot;,&quot;startArrow&quot;:&quot;none&quot;,&quot;endArrow&quot;:&quot;none&quot;,&quot;segment&quot;:10,&quot;curved&quot;:1};" vertex="1" parent="1">
          <mxGeometry x="500" y="460" width="120" height="30" as="geometry" />
        </mxCell>
        <mxCell id="EOYsyv7ITSajm1jVBeUH-13" style="edgeStyle=orthogonalEdgeStyle;rounded=0;orthogonalLoop=1;jettySize=auto;html=1;exitX=1;exitY=0.5;exitDx=0;exitDy=0;" edge="1" parent="1" source="EOYsyv7ITSajm1jVBeUH-9" target="EOYsyv7ITSajm1jVBeUH-12">
          <mxGeometry relative="1" as="geometry" />
        </mxCell>
        <mxCell id="EOYsyv7ITSajm1jVBeUH-9" value="极端情况：链表" style="whiteSpace=wrap;html=1;rounded=1;arcSize=50;align=center;verticalAlign=middle;strokeWidth=1;autosize=1;spacing=4;treeFolding=1;treeMoving=1;newEdgeStyle={&quot;edgeStyle&quot;:&quot;entityRelationEdgeStyle&quot;,&quot;startArrow&quot;:&quot;none&quot;,&quot;endArrow&quot;:&quot;none&quot;,&quot;segment&quot;:10,&quot;curved&quot;:1};" vertex="1" parent="1">
          <mxGeometry x="500" y="540" width="120" height="30" as="geometry" />
        </mxCell>
        <mxCell id="EOYsyv7ITSajm1jVBeUH-15" style="edgeStyle=orthogonalEdgeStyle;rounded=0;orthogonalLoop=1;jettySize=auto;html=1;exitX=1;exitY=0.5;exitDx=0;exitDy=0;entryX=0;entryY=0.5;entryDx=0;entryDy=0;" edge="1" parent="1" source="EOYsyv7ITSajm1jVBeUH-12" target="EOYsyv7ITSajm1jVBeUH-14">
          <mxGeometry relative="1" as="geometry" />
        </mxCell>
        <mxCell id="EOYsyv7ITSajm1jVBeUH-18" style="edgeStyle=orthogonalEdgeStyle;rounded=0;orthogonalLoop=1;jettySize=auto;html=1;exitX=0.5;exitY=1;exitDx=0;exitDy=0;entryX=0;entryY=0.5;entryDx=0;entryDy=0;" edge="1" parent="1" source="EOYsyv7ITSajm1jVBeUH-12" target="EOYsyv7ITSajm1jVBeUH-16">
          <mxGeometry relative="1" as="geometry" />
        </mxCell>
        <mxCell id="EOYsyv7ITSajm1jVBeUH-24" style="edgeStyle=orthogonalEdgeStyle;rounded=0;orthogonalLoop=1;jettySize=auto;html=1;exitX=0.5;exitY=1;exitDx=0;exitDy=0;entryX=0;entryY=0.5;entryDx=0;entryDy=0;" edge="1" parent="1" source="EOYsyv7ITSajm1jVBeUH-12" target="EOYsyv7ITSajm1jVBeUH-23">
          <mxGeometry relative="1" as="geometry" />
        </mxCell>
        <mxCell id="EOYsyv7ITSajm1jVBeUH-12" value="改进： 树平衡" style="whiteSpace=wrap;html=1;rounded=1;arcSize=50;align=center;verticalAlign=middle;strokeWidth=1;autosize=1;spacing=4;treeFolding=1;treeMoving=1;newEdgeStyle={&quot;edgeStyle&quot;:&quot;entityRelationEdgeStyle&quot;,&quot;startArrow&quot;:&quot;none&quot;,&quot;endArrow&quot;:&quot;none&quot;,&quot;segment&quot;:10,&quot;curved&quot;:1};" vertex="1" parent="1">
          <mxGeometry x="670" y="540" width="120" height="30" as="geometry" />
        </mxCell>
        <mxCell id="EOYsyv7ITSajm1jVBeUH-20" style="edgeStyle=orthogonalEdgeStyle;rounded=0;orthogonalLoop=1;jettySize=auto;html=1;exitX=1;exitY=0.5;exitDx=0;exitDy=0;entryX=0;entryY=0.5;entryDx=0;entryDy=0;" edge="1" parent="1" source="EOYsyv7ITSajm1jVBeUH-14" target="EOYsyv7ITSajm1jVBeUH-19">
          <mxGeometry relative="1" as="geometry" />
        </mxCell>
        <mxCell id="EOYsyv7ITSajm1jVBeUH-37" style="edgeStyle=orthogonalEdgeStyle;rounded=0;orthogonalLoop=1;jettySize=auto;html=1;exitX=0.5;exitY=1;exitDx=0;exitDy=0;entryX=0.5;entryY=0;entryDx=0;entryDy=0;fontColor=#CC0000;dashed=1;" edge="1" parent="1" source="EOYsyv7ITSajm1jVBeUH-14" target="EOYsyv7ITSajm1jVBeUH-16">
          <mxGeometry relative="1" as="geometry" />
        </mxCell>
        <mxCell id="EOYsyv7ITSajm1jVBeUH-14" value="严格平衡" style="whiteSpace=wrap;html=1;rounded=1;arcSize=50;align=center;verticalAlign=middle;strokeWidth=1;autosize=1;spacing=4;treeFolding=1;treeMoving=1;newEdgeStyle={&quot;edgeStyle&quot;:&quot;entityRelationEdgeStyle&quot;,&quot;startArrow&quot;:&quot;none&quot;,&quot;endArrow&quot;:&quot;none&quot;,&quot;segment&quot;:10,&quot;curved&quot;:1};" vertex="1" parent="1">
          <mxGeometry x="855" y="540" width="90" height="30" as="geometry" />
        </mxCell>
        <mxCell id="EOYsyv7ITSajm1jVBeUH-22" style="edgeStyle=orthogonalEdgeStyle;rounded=0;orthogonalLoop=1;jettySize=auto;html=1;exitX=1;exitY=0.5;exitDx=0;exitDy=0;entryX=0;entryY=0.5;entryDx=0;entryDy=0;" edge="1" parent="1" source="EOYsyv7ITSajm1jVBeUH-16" target="EOYsyv7ITSajm1jVBeUH-21">
          <mxGeometry relative="1" as="geometry" />
        </mxCell>
        <mxCell id="EOYsyv7ITSajm1jVBeUH-16" value="弱平衡" style="whiteSpace=wrap;html=1;rounded=1;arcSize=50;align=center;verticalAlign=middle;strokeWidth=1;autosize=1;spacing=4;treeFolding=1;treeMoving=1;newEdgeStyle={&quot;edgeStyle&quot;:&quot;entityRelationEdgeStyle&quot;,&quot;startArrow&quot;:&quot;none&quot;,&quot;endArrow&quot;:&quot;none&quot;,&quot;segment&quot;:10,&quot;curved&quot;:1};" vertex="1" parent="1">
          <mxGeometry x="860" y="690" width="80" height="30" as="geometry" />
        </mxCell>
        <mxCell id="EOYsyv7ITSajm1jVBeUH-38" style="edgeStyle=orthogonalEdgeStyle;rounded=0;orthogonalLoop=1;jettySize=auto;html=1;exitX=1;exitY=0.5;exitDx=0;exitDy=0;entryX=0;entryY=0.5;entryDx=0;entryDy=0;dashed=1;fontColor=#CC0000;" edge="1" parent="1" source="EOYsyv7ITSajm1jVBeUH-19" target="EOYsyv7ITSajm1jVBeUH-34">
          <mxGeometry relative="1" as="geometry" />
        </mxCell>
        <mxCell id="EOYsyv7ITSajm1jVBeUH-39" style="edgeStyle=orthogonalEdgeStyle;rounded=0;orthogonalLoop=1;jettySize=auto;html=1;exitX=1;exitY=0.5;exitDx=0;exitDy=0;entryX=0;entryY=0.5;entryDx=0;entryDy=0;dashed=1;fontColor=#CC0000;" edge="1" parent="1" source="EOYsyv7ITSajm1jVBeUH-19" target="EOYsyv7ITSajm1jVBeUH-35">
          <mxGeometry relative="1" as="geometry" />
        </mxCell>
        <mxCell id="EOYsyv7ITSajm1jVBeUH-40" style="edgeStyle=orthogonalEdgeStyle;rounded=0;orthogonalLoop=1;jettySize=auto;html=1;exitX=1;exitY=0.5;exitDx=0;exitDy=0;entryX=0;entryY=0.5;entryDx=0;entryDy=0;dashed=1;fontColor=#CC0000;" edge="1" parent="1" source="EOYsyv7ITSajm1jVBeUH-19" target="EOYsyv7ITSajm1jVBeUH-36">
          <mxGeometry relative="1" as="geometry" />
        </mxCell>
        <mxCell id="EOYsyv7ITSajm1jVBeUH-19" value="AVL树" style="whiteSpace=wrap;html=1;rounded=1;arcSize=50;align=center;verticalAlign=middle;strokeWidth=1;autosize=1;spacing=4;treeFolding=1;treeMoving=1;newEdgeStyle={&quot;edgeStyle&quot;:&quot;entityRelationEdgeStyle&quot;,&quot;startArrow&quot;:&quot;none&quot;,&quot;endArrow&quot;:&quot;none&quot;,&quot;segment&quot;:10,&quot;curved&quot;:1};fillColor=#ffe6cc;strokeColor=#d79b00;" vertex="1" parent="1">
          <mxGeometry x="1020" y="540" width="70" height="30" as="geometry" />
        </mxCell>
        <mxCell id="EOYsyv7ITSajm1jVBeUH-45" style="edgeStyle=orthogonalEdgeStyle;rounded=0;orthogonalLoop=1;jettySize=auto;html=1;exitX=1;exitY=0.5;exitDx=0;exitDy=0;entryX=0;entryY=0.5;entryDx=0;entryDy=0;dashed=1;fontColor=#CC0000;" edge="1" parent="1" source="EOYsyv7ITSajm1jVBeUH-21" target="EOYsyv7ITSajm1jVBeUH-41">
          <mxGeometry relative="1" as="geometry" />
        </mxCell>
        <mxCell id="EOYsyv7ITSajm1jVBeUH-46" style="edgeStyle=orthogonalEdgeStyle;rounded=0;orthogonalLoop=1;jettySize=auto;html=1;exitX=1;exitY=0.5;exitDx=0;exitDy=0;dashed=1;fontColor=#CC0000;" edge="1" parent="1" source="EOYsyv7ITSajm1jVBeUH-21" target="EOYsyv7ITSajm1jVBeUH-42">
          <mxGeometry relative="1" as="geometry" />
        </mxCell>
        <mxCell id="EOYsyv7ITSajm1jVBeUH-47" style="edgeStyle=orthogonalEdgeStyle;rounded=0;orthogonalLoop=1;jettySize=auto;html=1;exitX=1;exitY=0.5;exitDx=0;exitDy=0;entryX=0;entryY=0.5;entryDx=0;entryDy=0;dashed=1;fontColor=#CC0000;" edge="1" parent="1" source="EOYsyv7ITSajm1jVBeUH-21" target="EOYsyv7ITSajm1jVBeUH-43">
          <mxGeometry relative="1" as="geometry" />
        </mxCell>
        <mxCell id="EOYsyv7ITSajm1jVBeUH-21" value="红黑树" style="whiteSpace=wrap;html=1;rounded=1;arcSize=50;align=center;verticalAlign=middle;strokeWidth=1;autosize=1;spacing=4;treeFolding=1;treeMoving=1;newEdgeStyle={&quot;edgeStyle&quot;:&quot;entityRelationEdgeStyle&quot;,&quot;startArrow&quot;:&quot;none&quot;,&quot;endArrow&quot;:&quot;none&quot;,&quot;segment&quot;:10,&quot;curved&quot;:1};fillColor=#ffe6cc;strokeColor=#d79b00;" vertex="1" parent="1">
          <mxGeometry x="1020" y="690" width="80" height="30" as="geometry" />
        </mxCell>
        <mxCell id="EOYsyv7ITSajm1jVBeUH-27" style="edgeStyle=orthogonalEdgeStyle;rounded=0;orthogonalLoop=1;jettySize=auto;html=1;exitX=1;exitY=0.5;exitDx=0;exitDy=0;" edge="1" parent="1" source="EOYsyv7ITSajm1jVBeUH-23" target="EOYsyv7ITSajm1jVBeUH-25">
          <mxGeometry relative="1" as="geometry" />
        </mxCell>
        <mxCell id="EOYsyv7ITSajm1jVBeUH-23" value="缺点：层级深" style="whiteSpace=wrap;html=1;rounded=1;arcSize=50;align=center;verticalAlign=middle;strokeWidth=1;autosize=1;spacing=4;treeFolding=1;treeMoving=1;newEdgeStyle={&quot;edgeStyle&quot;:&quot;entityRelationEdgeStyle&quot;,&quot;startArrow&quot;:&quot;none&quot;,&quot;endArrow&quot;:&quot;none&quot;,&quot;segment&quot;:10,&quot;curved&quot;:1};" vertex="1" parent="1">
          <mxGeometry x="1010" y="860" width="110" height="30" as="geometry" />
        </mxCell>
        <mxCell id="EOYsyv7ITSajm1jVBeUH-32" style="edgeStyle=orthogonalEdgeStyle;rounded=0;orthogonalLoop=1;jettySize=auto;html=1;exitX=1;exitY=0.5;exitDx=0;exitDy=0;" edge="1" parent="1" source="EOYsyv7ITSajm1jVBeUH-25" target="EOYsyv7ITSajm1jVBeUH-28">
          <mxGeometry relative="1" as="geometry" />
        </mxCell>
        <mxCell id="EOYsyv7ITSajm1jVBeUH-33" style="edgeStyle=orthogonalEdgeStyle;rounded=0;orthogonalLoop=1;jettySize=auto;html=1;exitX=1;exitY=0.5;exitDx=0;exitDy=0;entryX=0;entryY=0.5;entryDx=0;entryDy=0;" edge="1" parent="1" source="EOYsyv7ITSajm1jVBeUH-25" target="EOYsyv7ITSajm1jVBeUH-29">
          <mxGeometry relative="1" as="geometry" />
        </mxCell>
        <mxCell id="EOYsyv7ITSajm1jVBeUH-25" value="多叉平衡树" style="whiteSpace=wrap;html=1;rounded=1;arcSize=50;align=center;verticalAlign=middle;strokeWidth=1;autosize=1;spacing=4;treeFolding=1;treeMoving=1;newEdgeStyle={&quot;edgeStyle&quot;:&quot;entityRelationEdgeStyle&quot;,&quot;startArrow&quot;:&quot;none&quot;,&quot;endArrow&quot;:&quot;none&quot;,&quot;segment&quot;:10,&quot;curved&quot;:1};fillColor=#ffe6cc;strokeColor=#d79b00;" vertex="1" parent="1">
          <mxGeometry x="1225" y="860" width="100" height="30" as="geometry" />
        </mxCell>
        <mxCell id="EOYsyv7ITSajm1jVBeUH-28" value="B-Tree" style="whiteSpace=wrap;html=1;rounded=1;arcSize=50;align=center;verticalAlign=middle;strokeWidth=1;autosize=1;spacing=4;treeFolding=1;treeMoving=1;newEdgeStyle={&quot;edgeStyle&quot;:&quot;entityRelationEdgeStyle&quot;,&quot;startArrow&quot;:&quot;none&quot;,&quot;endArrow&quot;:&quot;none&quot;,&quot;segment&quot;:10,&quot;curved&quot;:1};fillColor=#ffe6cc;strokeColor=#d79b00;" vertex="1" parent="1">
          <mxGeometry x="1425" y="860" width="80" height="30" as="geometry" />
        </mxCell>
        <mxCell id="EOYsyv7ITSajm1jVBeUH-29" value="B+Tree" style="whiteSpace=wrap;html=1;rounded=1;arcSize=50;align=center;verticalAlign=middle;strokeWidth=1;autosize=1;spacing=4;treeFolding=1;treeMoving=1;newEdgeStyle={&quot;edgeStyle&quot;:&quot;entityRelationEdgeStyle&quot;,&quot;startArrow&quot;:&quot;none&quot;,&quot;endArrow&quot;:&quot;none&quot;,&quot;segment&quot;:10,&quot;curved&quot;:1};fillColor=#ffe6cc;strokeColor=#d79b00;" vertex="1" parent="1">
          <mxGeometry x="1425" y="950" width="80" height="30" as="geometry" />
        </mxCell>
        <mxCell id="EOYsyv7ITSajm1jVBeUH-34" value="特点：左右节点高度不超过1，超过要&lt;font color=&quot;#cc0000&quot;&gt;旋转&lt;/font&gt;" style="whiteSpace=wrap;html=1;rounded=1;arcSize=50;align=center;verticalAlign=middle;strokeWidth=1;autosize=1;spacing=4;treeFolding=1;treeMoving=1;newEdgeStyle={&quot;edgeStyle&quot;:&quot;entityRelationEdgeStyle&quot;,&quot;startArrow&quot;:&quot;none&quot;,&quot;endArrow&quot;:&quot;none&quot;,&quot;segment&quot;:10,&quot;curved&quot;:1};" vertex="1" parent="1">
          <mxGeometry x="1140" y="500" width="260" height="30" as="geometry" />
        </mxCell>
        <mxCell id="EOYsyv7ITSajm1jVBeUH-35" value="适用：插入/删除少，读多场景" style="whiteSpace=wrap;html=1;rounded=1;arcSize=50;align=center;verticalAlign=middle;strokeWidth=1;autosize=1;spacing=4;treeFolding=1;treeMoving=1;newEdgeStyle={&quot;edgeStyle&quot;:&quot;entityRelationEdgeStyle&quot;,&quot;startArrow&quot;:&quot;none&quot;,&quot;endArrow&quot;:&quot;none&quot;,&quot;segment&quot;:10,&quot;curved&quot;:1};" vertex="1" parent="1">
          <mxGeometry x="1140" y="540" width="200" height="30" as="geometry" />
        </mxCell>
        <mxCell id="EOYsyv7ITSajm1jVBeUH-36" value="缺点：严格保持平衡，代价高" style="whiteSpace=wrap;html=1;rounded=1;arcSize=50;align=center;verticalAlign=middle;strokeWidth=1;autosize=1;spacing=4;treeFolding=1;treeMoving=1;newEdgeStyle={&quot;edgeStyle&quot;:&quot;entityRelationEdgeStyle&quot;,&quot;startArrow&quot;:&quot;none&quot;,&quot;endArrow&quot;:&quot;none&quot;,&quot;segment&quot;:10,&quot;curved&quot;:1};" vertex="1" parent="1">
          <mxGeometry x="1141" y="580" width="200" height="30" as="geometry" />
        </mxCell>
        <mxCell id="EOYsyv7ITSajm1jVBeUH-41" value="特点：红黑标识节点&amp;amp;每条路径黑点不超过其他2倍" style="whiteSpace=wrap;html=1;rounded=1;arcSize=50;align=center;verticalAlign=middle;strokeWidth=1;autosize=1;spacing=4;treeFolding=1;treeMoving=1;newEdgeStyle={&quot;edgeStyle&quot;:&quot;entityRelationEdgeStyle&quot;,&quot;startArrow&quot;:&quot;none&quot;,&quot;endArrow&quot;:&quot;none&quot;,&quot;segment&quot;:10,&quot;curved&quot;:1};" vertex="1" parent="1">
          <mxGeometry x="1140" y="650" width="325" height="30" as="geometry" />
        </mxCell>
        <mxCell id="EOYsyv7ITSajm1jVBeUH-42" value="适用：弱平衡&amp;amp;旋转少， 适合写/删多的场景" style="whiteSpace=wrap;html=1;rounded=1;arcSize=50;align=center;verticalAlign=middle;strokeWidth=1;autosize=1;spacing=4;treeFolding=1;treeMoving=1;newEdgeStyle={&quot;edgeStyle&quot;:&quot;entityRelationEdgeStyle&quot;,&quot;startArrow&quot;:&quot;none&quot;,&quot;endArrow&quot;:&quot;none&quot;,&quot;segment&quot;:10,&quot;curved&quot;:1};" vertex="1" parent="1">
          <mxGeometry x="1141" y="690" width="270" height="30" as="geometry" />
        </mxCell>
        <mxCell id="EOYsyv7ITSajm1jVBeUH-43" value="应用：linux进程调度/epoll管理socket/hashmap优化/nginx timer管理" style="whiteSpace=wrap;html=1;rounded=1;arcSize=50;align=center;verticalAlign=middle;strokeWidth=1;autosize=1;spacing=4;treeFolding=1;treeMoving=1;newEdgeStyle={&quot;edgeStyle&quot;:&quot;entityRelationEdgeStyle&quot;,&quot;startArrow&quot;:&quot;none&quot;,&quot;endArrow&quot;:&quot;none&quot;,&quot;segment&quot;:10,&quot;curved&quot;:1};" vertex="1" parent="1">
          <mxGeometry x="1141" y="740" width="400" height="30" as="geometry" />
        </mxCell>
        <mxCell id="EOYsyv7ITSajm1jVBeUH-48" value="特点：1. 至少2个子节点 2.叶子和非叶子都存储数据" style="whiteSpace=wrap;html=1;rounded=1;arcSize=50;align=center;verticalAlign=middle;strokeWidth=1;autosize=1;spacing=4;treeFolding=1;treeMoving=1;newEdgeStyle={&quot;edgeStyle&quot;:&quot;entityRelationEdgeStyle&quot;,&quot;startArrow&quot;:&quot;none&quot;,&quot;endArrow&quot;:&quot;none&quot;,&quot;segment&quot;:10,&quot;curved&quot;:1};" vertex="1" parent="1">
          <mxGeometry x="1528" y="820" width="310" height="30" as="geometry" />
        </mxCell>
        <mxCell id="EOYsyv7ITSajm1jVBeUH-49" value="应用： 小数据量的数据库索引，直接返回数据" style="whiteSpace=wrap;html=1;rounded=1;arcSize=50;align=center;verticalAlign=middle;strokeWidth=1;autosize=1;spacing=4;treeFolding=1;treeMoving=1;newEdgeStyle={&quot;edgeStyle&quot;:&quot;entityRelationEdgeStyle&quot;,&quot;startArrow&quot;:&quot;none&quot;,&quot;endArrow&quot;:&quot;none&quot;,&quot;segment&quot;:10,&quot;curved&quot;:1};" vertex="1" parent="1">
          <mxGeometry x="1528" y="860" width="267" height="30" as="geometry" />
        </mxCell>
        <mxCell id="EOYsyv7ITSajm1jVBeUH-50" value="特点：1. 叶子保存数据和非叶子保存索引2. 叶子结点通过指针连接，方便遍历" style="whiteSpace=wrap;html=1;rounded=1;arcSize=50;align=center;verticalAlign=middle;strokeWidth=1;autosize=1;spacing=4;treeFolding=1;treeMoving=1;newEdgeStyle={&quot;edgeStyle&quot;:&quot;entityRelationEdgeStyle&quot;,&quot;startArrow&quot;:&quot;none&quot;,&quot;endArrow&quot;:&quot;none&quot;,&quot;segment&quot;:10,&quot;curved&quot;:1};" vertex="1" parent="1">
          <mxGeometry x="1528" y="940" width="450" height="30" as="geometry" />
        </mxCell>
        <mxCell id="EOYsyv7ITSajm1jVBeUH-51" value="应用： 文件系统/数据库索引" style="whiteSpace=wrap;html=1;rounded=1;arcSize=50;align=center;verticalAlign=middle;strokeWidth=1;autosize=1;spacing=4;treeFolding=1;treeMoving=1;newEdgeStyle={&quot;edgeStyle&quot;:&quot;entityRelationEdgeStyle&quot;,&quot;startArrow&quot;:&quot;none&quot;,&quot;endArrow&quot;:&quot;none&quot;,&quot;segment&quot;:10,&quot;curved&quot;:1};" vertex="1" parent="1">
          <mxGeometry x="1528" y="980" width="190" height="30" as="geometry" />
        </mxCell>
      </root>
    </mxGraphModel>
  </diagram>
</mxfile>
